<?xml version="1.0" encoding="UTF-8" standalone="no"?>
<!-- Created with Inkscape (http://www.inkscape.org/) -->

<svg
   xmlns:dc="http://purl.org/dc/elements/1.1/"
   xmlns:cc="http://creativecommons.org/ns#"
   xmlns:rdf="http://www.w3.org/1999/02/22-rdf-syntax-ns#"
   xmlns:svg="http://www.w3.org/2000/svg"
   xmlns="http://www.w3.org/2000/svg"
   xmlns:sodipodi="http://sodipodi.sourceforge.net/DTD/sodipodi-0.dtd"
   xmlns:inkscape="http://www.inkscape.org/namespaces/inkscape"
   width="64"
   height="64"
   viewBox="0 0 16.933333 16.933333"
   version="1.1"
   id="svg882"
   inkscape:version="0.92.3 (2405546, 2018-03-11)"
   sodipodi:docname="logo.svg">
  <defs
     id="defs876" />
  <sodipodi:namedview
     id="base"
     pagecolor="#ffffff"
     bordercolor="#666666"
     borderopacity="1.0"
     inkscape:pageopacity="0.0"
     inkscape:pageshadow="2"
     inkscape:zoom="8"
     inkscape:cx="25.862854"
     inkscape:cy="30.711601"
     inkscape:document-units="px"
     inkscape:current-layer="layer1"
     showgrid="true"
     units="px"
     inkscape:window-width="1916"
     inkscape:window-height="1024"
     inkscape:window-x="0"
     inkscape:window-y="26"
     inkscape:window-maximized="0"
     objecttolerance="1"
     guidetolerance="1">
    <inkscape:grid
       type="xygrid"
       id="grid1427"
       originy="0"
       spacingx="0.52916666"
       spacingy="0.52916666"
       snapvisiblegridlinesonly="false"
       empspacing="1" />
  </sodipodi:namedview>
  <metadata
     id="metadata879">
    <rdf:RDF>
      <cc:Work
         rdf:about="">
        <dc:format>image/svg+xml</dc:format>
        <dc:type
           rdf:resource="http://purl.org/dc/dcmitype/StillImage" />
        <dc:title></dc:title>
      </cc:Work>
    </rdf:RDF>
  </metadata>
  <g
     inkscape:label="Layer 1"
     inkscape:groupmode="layer"
     id="layer1"
     transform="translate(0,-280.06667)">
    <path
       id="path5247-7"
       style="opacity:1;fill:#ffffff;fill-opacity:1;fill-rule:nonzero;stroke:#ffffff;stroke-width:0.51593749;stroke-linecap:square;stroke-linejoin:miter;stroke-miterlimit:4;stroke-dasharray:none;stroke-dashoffset:315.55459595;stroke-opacity:1"
       d="M 12.426677,285.10753 C 9.8070456,283.5452 6.4143446,282.24206 5.2916676,282.18331 l -1e-6,3e-5 c -0.132375,-0.007 -0.235181,0.007 -0.303642,0.045 -0.548175,0.30213 -0.499333,2.91249 -0.498847,5.7827 l -10e-7,1.05833 c -4.86e-4,2.8702 -0.01901,5.46978 0.529167,5.77186 0.06846,0.038 0.171267,0.052 0.303643,0.045 l 1e-6,2e-5 c 1.122676,-0.0587 4.485057,-1.34022 7.1046884,-2.9025 l 1.058335,-0.66542 c 2.096247,-1.12311 3.175,-2.3373 3.175,-2.7974 0,-0.46011 -1.078753,-1.63572 -3.175,-2.75885 z"
       inkscape:connector-curvature="0"
       sodipodi:nodetypes="cccccccccccscc" />
    <path
       style="opacity:1;fill:#ffffff;fill-opacity:1;fill-rule:nonzero;stroke:#000000;stroke-width:0.52916664;stroke-linecap:square;stroke-linejoin:miter;stroke-miterlimit:4;stroke-dasharray:none;stroke-dashoffset:315.55459595;stroke-opacity:1"
       d="m 13.49375,285.75521 v 5.55625 c 2.096247,-1.12311 3.175,-2.3373 3.175,-2.7974 0,-0.46011 -1.078753,-1.63572 -3.175,-2.75885 z"
       id="path5155-3"
       inkscape:connector-curvature="0"
       sodipodi:nodetypes="ccsc" />
    <path
       id="path5245"
       d="m 5.300406,282.17647 c -0.1323759,-0.007 -0.2351813,0.007 -0.3036429,0.045 -0.5481745,0.30213 -0.4993329,2.91249 -0.4988465,5.7827 h 7.9374994 v -2.90351 c -2.6196313,-1.56233 -6.0123325,-2.86547 -7.135009,-2.92422 z"
       style="opacity:1;fill:#0000c4;fill-opacity:1;fill-rule:nonzero;stroke:#000000;stroke-width:0.52916664;stroke-linecap:square;stroke-linejoin:miter;stroke-miterlimit:4;stroke-dasharray:none;stroke-dashoffset:315.55459595;stroke-opacity:1;paint-order:normal"
       inkscape:connector-curvature="0"
       sodipodi:nodetypes="ccccccc" />
    <path
       sodipodi:nodetypes="ccccccc"
       inkscape:connector-curvature="0"
       style="opacity:1;fill:#c20000;fill-opacity:1;fill-rule:nonzero;stroke:#000000;stroke-width:0.52916664;stroke-linecap:square;stroke-linejoin:miter;stroke-miterlimit:4;stroke-dasharray:none;stroke-dashoffset:315.55459595;stroke-opacity:1"
       d="m 5.3307261,294.87936 c -0.1323759,0.007 -0.2351813,-0.007 -0.3036429,-0.045 -0.5481745,-0.30208 -0.5296531,-2.90166 -0.5291667,-5.77186 h 7.9374995 v 2.91438 c -2.6196315,1.56228 -5.9820124,2.84376 -7.1046889,2.9025 z"
       id="path5247" />
    <path
       id="path869"
       style="opacity:1;fill:#c20000;fill-opacity:1;fill-rule:nonzero;stroke:#000000;stroke-width:0.79374999;stroke-linecap:round;stroke-linejoin:miter;stroke-miterlimit:4;stroke-dasharray:none;stroke-dashoffset:315.55459595;stroke-opacity:1"
       d="M 3.0368299,281.65417 0.40230582,280.46643 M 3.0368299,295.4125 0.40230582,296.60038 M 3.0370336,288.53337 H 0.40252748 m 2.63449642,-3.47195 -2.63453504,-0.52917 m 2.63452744,7.47307 -2.63450842,0.52917" />
  </g>
</svg>
